<svg width="20" height="19" viewBox="0 0 20 19" fill="none" xmlns="http://www.w3.org/2000/svg">
<path fill-rule="evenodd" clip-rule="evenodd" d="M3.69865 4.99997L8.09725 0.784644C9.16095 -0.234732 10.839 -0.234734 11.9027 0.784643L16.3013 4.99997H18.847C19.4555 4.99997 19.923 5.53896 19.8369 6.14139L18.368 16.4242C18.1568 17.9022 16.8911 19 15.3981 19H4.6019C3.10895 19 1.84318 17.9022 1.63205 16.4242L0.16307 6.14139C0.0770085 5.53896 0.544471 4.99997 1.15302 4.99997H3.69865ZM9.13511 1.86763C9.61861 1.40427 10.3814 1.40427 10.8649 1.86763L14.1334 4.99997H5.86658L9.13511 1.86763ZM1.72952 6.49997L3.11697 16.2121C3.22254 16.9511 3.85542 17.5 4.6019 17.5H15.3981C16.1446 17.5 16.7775 16.9511 16.883 16.2121L18.2705 6.49997H1.72952Z" fill="#868686"/>
<path fill-rule="evenodd" clip-rule="evenodd" d="M6 9.24997C6.41421 9.24997 6.75 9.58576 6.75 9.99997V14C6.75 14.4142 6.41421 14.75 6 14.75C5.58579 14.75 5.25 14.4142 5.25 14V9.99997C5.25 9.58576 5.58579 9.24997 6 9.24997Z" fill="#868686"/>
<path fill-rule="evenodd" clip-rule="evenodd" d="M10 9.24997C10.4142 9.24997 10.75 9.58576 10.75 9.99997V14C10.75 14.4142 10.4142 14.75 10 14.75C9.58579 14.75 9.25 14.4142 9.25 14V9.99997C9.25 9.58576 9.58579 9.24997 10 9.24997Z" fill="#868686"/>
<path fill-rule="evenodd" clip-rule="evenodd" d="M14 9.24997C14.4142 9.24997 14.75 9.58576 14.75 9.99997V14C14.75 14.4142 14.4142 14.75 14 14.75C13.5858 14.75 13.25 14.4142 13.25 14V9.99997C13.25 9.58576 13.5858 9.24997 14 9.24997Z" fill="#868686"/>
</svg>
