<svg width="102" height="52" viewBox="0 0 102 52" fill="none" xmlns="http://www.w3.org/2000/svg">
<g filter="url(#filter0_d_28_1204)">
<circle cx="26" cy="22" r="22" fill="#F4DE4D"/>
<path d="M42.201 23.178C41.214 24.438 39.912 25.068 38.295 25.068C36.867 25.068 35.67 24.564 34.683 23.535C33.696 22.506 33.213 21.267 33.213 19.797C33.213 18.327 33.696 17.088 34.683 16.059C35.67 15.03 36.867 14.505 38.295 14.505C39.807 14.505 41.088 15.114 42.159 16.311L43.881 14.967C42.558 13.35 40.563 12.363 38.295 12.363C36.258 12.363 34.515 13.098 33.108 14.547C31.701 15.996 30.987 17.739 30.987 19.797C30.987 21.855 31.701 23.598 33.108 25.047C34.515 26.496 36.258 27.21 38.295 27.21C40.626 27.21 42.642 26.223 43.923 24.543L42.201 23.178Z" fill="white"/>
<path d="M60.298 27V17.193H58.156V18.579C57.505 17.55 56.14 16.983 54.859 16.983C53.494 16.983 52.318 17.466 51.331 18.411C50.365 19.356 49.882 20.574 49.882 22.086C49.882 23.598 50.365 24.837 51.331 25.782C52.318 26.727 53.494 27.21 54.859 27.21C56.14 27.21 57.547 26.601 58.156 25.593V27H60.298ZM58.135 22.065C58.135 23.913 56.791 25.11 55.111 25.11C54.271 25.11 53.557 24.816 52.969 24.249C52.402 23.682 52.108 22.947 52.108 22.065C52.108 21.183 52.402 20.469 52.969 19.923C53.557 19.356 54.271 19.083 55.111 19.083C55.909 19.083 56.602 19.356 57.211 19.902C57.82 20.427 58.135 21.162 58.135 22.065ZM63.3294 17.193V31.767H65.4924V25.593C66.0804 26.622 67.3614 27.21 68.7684 27.21C70.1334 27.21 71.2674 26.748 72.2124 25.803C73.1574 24.858 73.6404 23.64 73.6404 22.107C73.6404 20.595 73.1574 19.356 72.2124 18.411C71.2674 17.466 70.1334 16.983 68.7684 16.983C67.4244 16.983 66.0804 17.613 65.4924 18.642V17.193H63.3294ZM65.5134 22.149C65.5134 21.225 65.8074 20.49 66.3744 19.923C66.9624 19.356 67.6764 19.083 68.4954 19.083C69.3144 19.083 70.0074 19.377 70.5744 19.944C71.1414 20.511 71.4354 21.246 71.4354 22.149C71.4354 23.913 70.1754 25.131 68.4954 25.131C67.6974 25.131 67.0044 24.858 66.3954 24.333C65.8074 23.787 65.5134 23.052 65.5134 22.149ZM85.3887 22.065C85.3887 20.532 84.9267 19.314 84.0027 18.39C83.0787 17.445 81.9027 16.983 80.4747 16.983C79.0467 16.983 77.8497 17.445 76.8837 18.39C75.9177 19.314 75.4347 20.532 75.4347 22.065C75.4347 23.598 75.9177 24.837 76.8837 25.782C77.8497 26.727 79.0467 27.21 80.4747 27.21C82.4277 27.21 84.1707 26.349 85.0107 24.69L83.2467 23.913C82.7427 24.816 81.6927 25.32 80.5797 25.32C78.9837 25.32 77.7657 24.375 77.5767 22.863H85.3677C85.3887 22.716 85.3887 22.464 85.3887 22.065ZM77.5767 21.288C77.7657 19.797 78.9417 18.873 80.4747 18.873C81.9657 18.873 83.0787 19.776 83.2677 21.288H77.5767ZM97.4162 27V11.859H95.2742V18.6C94.6862 17.571 93.3842 16.983 91.9562 16.983C90.5912 16.983 89.4152 17.466 88.4702 18.411C87.5252 19.356 87.0632 20.574 87.0632 22.107C87.0632 23.619 87.5462 24.858 88.4912 25.803C89.4362 26.748 90.5912 27.21 91.9562 27.21C93.3632 27.21 94.6862 26.601 95.2742 25.572V27H97.4162ZM95.2322 22.065C95.2322 23.913 93.9092 25.11 92.2292 25.11C91.4102 25.11 90.6962 24.837 90.1292 24.27C89.5622 23.703 89.2892 22.968 89.2892 22.065C89.2892 20.301 90.5492 19.083 92.2292 19.083C93.0272 19.083 93.7202 19.356 94.3292 19.902C94.9382 20.427 95.2322 21.162 95.2322 22.065Z" fill="white"/>
<rect x="73" y="13" width="12" height="3" fill="white"/>
</g>
<defs>
<filter id="filter0_d_28_1204" x="0" y="-3.05176e-05" width="101.416" height="52" filterUnits="userSpaceOnUse" color-interpolation-filters="sRGB">
<feFlood flood-opacity="0" result="BackgroundImageFix"/>
<feColorMatrix in="SourceAlpha" type="matrix" values="0 0 0 0 0 0 0 0 0 0 0 0 0 0 0 0 0 0 127 0" result="hardAlpha"/>
<feOffset dy="4"/>
<feGaussianBlur stdDeviation="2"/>
<feComposite in2="hardAlpha" operator="out"/>
<feColorMatrix type="matrix" values="0 0 0 0 0 0 0 0 0 0 0 0 0 0 0 0 0 0 0.25 0"/>
<feBlend mode="normal" in2="BackgroundImageFix" result="effect1_dropShadow_28_1204"/>
<feBlend mode="normal" in="SourceGraphic" in2="effect1_dropShadow_28_1204" result="shape"/>
</filter>
</defs>
</svg>
