<svg width="19" height="19" viewBox="0 0 19 19" fill="none" xmlns="http://www.w3.org/2000/svg">
<path fill-rule="evenodd" clip-rule="evenodd" d="M15.8723 14.8116C17.1996 13.2436 18 11.2152 18 8.99997C18 4.02941 13.9706 -3.05176e-05 9 -3.05176e-05C4.02944 -3.05176e-05 0 4.02941 0 8.99997C0 13.9705 4.02944 18 9 18C11.2153 18 13.2436 17.1996 14.8116 15.8723L17.4697 18.5303C17.7626 18.8232 18.2374 18.8232 18.5303 18.5303C18.8232 18.2374 18.8232 17.7625 18.5303 17.4696L15.8723 14.8116ZM16.5 8.99997C16.5 13.1421 13.1421 16.5 9 16.5C4.85786 16.5 1.5 13.1421 1.5 8.99997C1.5 4.85783 4.85786 1.49997 9 1.49997C13.1421 1.49997 16.5 4.85783 16.5 8.99997Z" fill="#868686"/>
</svg>
